<svg width="48" height="54" viewBox="0 0 48 54" fill="none" xmlns="http://www.w3.org/2000/svg">
<path d="M42.625 5.625C44.125 5.625 45.375 6.16667 46.375 7.25C47.4583 8.25 48 9.5 48 11V48.375C48 49.7917 47.4583 51.0417 46.375 52.125C45.375 53.125 44.125 53.625 42.625 53.625H5.375C3.875 53.625 2.58333 53.125 1.5 52.125C0.5 51.0417 0 49.7917 0 48.375V11C0 9.5 0.5 8.25 1.5 7.25C2.58333 6.16667 3.875 5.625 5.375 5.625H8V0.375H13.375V5.625H34.625V0.375H40V5.625H42.625ZM42.625 48.375V21.625H5.375V48.375H42.625ZM16 32.375V27H10.625V32.375H16ZM26.625 32.375V27H21.375V32.375H26.625ZM37.375 32.375V27H32V32.375H37.375ZM16 43V37.625H10.625V43H16ZM26.625 43V37.625H21.375V43H26.625ZM37.375 43V37.625H32V43H37.375Z" fill="#0B3B60"/>
</svg>
