<svg width="44" height="54" viewBox="0 0 44 54" fill="none" xmlns="http://www.w3.org/2000/svg">
<path d="M18 29.625V36.375H26V29.625H32.625V21.625H26V15H18V21.625H11.375V29.625H18ZM22 0.375L43.375 8.375V24.625C43.375 27.9583 42.8333 31.2083 41.75 34.375C40.6667 37.5417 39.1667 40.4583 37.25 43.125C35.3333 45.7083 33.0833 47.9167 30.5 49.75C27.9167 51.5833 25.0833 52.875 22 53.625C18.9167 52.875 16.0833 51.5833 13.5 49.75C10.9167 47.9167 8.66667 45.7083 6.75 43.125C4.83333 40.4583 3.33333 37.5417 2.25 34.375C1.16667 31.2083 0.625 27.9583 0.625 24.625V8.375L22 0.375Z" fill="#0B3B60"/>
</svg>
